# xmcd
# 
# Track frame offsets:
#     150
#     19040
#     34544
#     48030
#     75754
#     100141
#     112109
# 
# Disc length: 1785
# 
# Revision: 3
# Processed by: cddbd v1.5.2PL0 Copyright (c) Steve Scherf et al.
# Submitted via: fre:ac v1.0.31
# 
DISCID=4006f707
DTITLE=wowaka (現実逃避P) Feat. 初音ミク - アンハッピーリフレイン [Disc2]
DYEAR=2011
DGENRE=Vocaloid
TTITLE0=裏表ラバーズ　reverse Edge mix
TTITLE1=とおせんぼ　天変地異編
TTITLE2=ローリンガール　風林火山編
TTITLE3=僕のサイノウ　dnb mix
TTITLE4=積み木の人形　rnb mix
TTITLE5=ずれていく　postrock mix
TTITLE6=ワールドエンド・ダンスホール　dexholic mix
EXTD=YEAR: 2011
EXTT0=
EXTT1=
EXTT2=
EXTT3=
EXTT4=
EXTT5=
EXTT6=
PLAYORDER=
